<?xml version="1.0" encoding="UTF-8"?>
<svg id="Icon_Design_xA0_Image" xmlns="http://www.w3.org/2000/svg" version="1.1" viewBox="0 0 550 550">
  <!-- Generator: Adobe Illustrator 29.8.4, SVG Export Plug-In . SVG Version: 2.1.1 Build 6)  -->
  <defs>
    <style>
      .st0 {
        fill: #fdc600;
      }

      .st1 {
        fill: #1d1d2a;
      }

      .st2 {
        fill: #fefefe;
      }
    </style>
  </defs>
  <path class="st0" d="M453.89,351.94c12.18,15,20.27,36.49,12.9,55.46-3.85,9.91-19.23,26.32-28.88,31.07-14.06,6.92-38.39,8.79-54.11,9.44-113.57,4.68-230.32-3.66-344.22-.01-15.28-1.43-15.57-12.51-7.56-23.24,25.82-34.6,50.97-72.81,73.46-109.98,28.22-46.65,37.15-93.31,84.23-128,57.46-42.34,143.32-29.89,190.46,21.36,19.57,21.28,53.35,79.31,49.43,108.22-2.61,19.26-24.1,48.59-40,59.47-3.07,2.1-23.82,11.92-26.47,11.96-1.19.02-9.07-6.8-12.89-8.22-31.54-11.72-60.38,24-33.43,41.82,9.32,6.17,15.95,7.01,26.51,4.13,4.32-1.18,8.92-4.31,12.25-5.13,4.17-1.03,11.27-.6,15.85-1.53,37.99-7.7,66.27-31.85,82.46-66.81ZM225.66,256.44c-6.32-6.74-15.86-7.14-24.13-3.98-8.8,3.36-11.89,23.79-6.27,30.8.37.45,8.44,7.21,8.97,7.46,21.05,9.59,35.96-18.76,21.43-34.27ZM331.28,251.52c-22.99,3.76-19.62,45.52,9.03,40.19,16.09-2.99,20.19-30.02,8.12-37.37-.46-.28-9.61-2.95-10.32-3.05-2.31-.34-4.54-.15-6.83.23ZM281.6,306.75c-1.81,1.38-2.59,6.39-7.19,5.33-3.8-.87-9.85-7.34-15.67-8.99-36.08-10.19-45.6,30.52-76.3,27.13-9.3-1.03-19.64-7.37-22.32-16.64-1.93-.32-1.19,1.65-1.22,3-.49,23.84,22.12,42.91,44.08,47.06,27.06,5.11,53.13-1.29,72.23-21.3.4,3.02,3.24,5.24,5.46,7.15,20.08,17.38,49.92,19,73.56,11.3,14.38-4.69,31.34-25.27,32.49-40.65-9.19,5.93-17.99,9.21-29.25,7.71-24.68-3.3-33.37-30.37-63.54-26.17-2.95.41-10.01,3.29-12.33,5.06ZM296.51,367.82c-6.05,1.64-8.81,6.2-18.23,6.94-13.77,1.08-17.4-4.3-27.72-6-9.38-1.55-10.76,8.66-2.54,13.4,14.19,8.18,36.71,7.25,51.2.35,13.47-6.42,8.34-17.69-2.7-14.69Z"/>
  <path class="st1" d="M453.89,351.94c5.45-11.76,8.53-24.89,12.58-37.16,4.88,3.75,6.72,11.12,9.74,15.49,18.49,26.73,45.69,58.39,60.88,86.55,3.81,7.07,8.53,17.48,7.81,25.51-1.31,14.63-13.61,23.91-27.4,26.58l-485.1.58c-25.01-2.15-36.26-22.71-25.95-45.22,3.46-7.54,9.35-12.16,13.01-17.64,5.9-8.83,10.82-18.31,16.63-27.05,16.5-24.81,34.06-48.52,49.54-74.01-10.41-14.65-13.26-30.07-7.89-47.41,5.69-18.37,28.88-44.33,46.41-22.52.57-3.78,3.07-7.91,5.04-11.16,69.27-114.33,215.18-112.42,288.03-1.93,2.08,3.16,4.57,7.02,5.51,10.69,3.26.95,2.23-2.15,4.1-3.62,7.48-5.86,16.73-3.81,24.07,1.21,6.09,4.17,15.49,18.4,17.71,25.46,4.29,13.68,3.79,31.54-5.3,43.33-1.93,2.5-11.93,9.92-12.78,12.35-2.5,7.12-3.23,16.42-6.52,24.7-9.76,24.58-33.95,53.5-58.85,63.45-5.2,2.08-15.29,3.33-18.79,5.19-1.88,1-7.09,12.9-10.8,14.98-3.34.82-7.93,3.95-12.25,5.13-10.57,2.88-17.19,2.03-26.51-4.13-26.95-17.82,1.89-53.54,33.43-41.82,3.82,1.42,11.71,8.24,12.89,8.22,2.65-.03,23.4-9.86,26.47-11.96,15.89-10.87,37.39-40.2,40-59.47,3.92-28.9-29.87-86.94-49.43-108.22-47.13-51.26-133-63.7-190.46-21.36-47.08,34.69-56.01,81.34-84.23,128-22.49,37.18-47.65,75.38-73.46,109.98-8.01,10.73-7.72,21.81,7.56,23.24,113.9-3.65,230.65,4.69,344.22.01,15.72-.65,40.05-2.52,54.11-9.44,9.65-4.75,25.03-21.16,28.88-31.07,7.37-18.98-.72-40.47-12.9-55.46ZM342.38,383.13c-11.74-.88-26.1,5.42-25.16,19.17l8.49-10.08,16.67-9.09Z"/>
  <path class="st1" d="M217.69,132.52l-40.76,18.59c17.69-24.43,33.68-49.98,51.75-74.2,13.25-17.75,24.16-37.75,50.65-34.22,22.38,2.98,42.54,40.44,55.1,58.22,7.89,11.16,16.94,22.44,24.56,33.58,2.14,3.12,8.71,11.71,9.75,14.23.29.71.22,2.03-.58,1.77-12.06-7.15-26.79-15.04-40.17-19.18-4.99-10.94-14.57-19.93-21.54-29.42-9.96-13.57-25.54-49.21-46.23-28.15l-42.54,58.77Z"/>
  <path class="st0" d="M217.69,132.52l42.54-58.77c20.69-21.06,36.27,14.58,46.23,28.15,6.97,9.49,16.55,18.49,21.54,29.42-34.56-10.67-76.04-10.3-110.31,1.2Z"/>
  <path class="st0" d="M467.07,107.36l-19.63,7.33c-19.93,9.87-23.27,25.63-28.92,45.43-2.75-28.3-20.05-48.3-48.57-52.17,28.34-5.46,45.54-23.17,48.57-52.17,4.5,28.11,19.11,47.67,48.55,51.58Z"/>
  <path class="st0" d="M506.64,149.32l-12.41,4.96c-5.76,2.17-10.3,6.71-12.98,12.2-2.21,4.53-2.18,10.84-5.77,14-.22-18.16-12.39-26.9-28.8-30.57,17.76-3.13,26.86-13.28,30.59-30.59,2.13,15.68,13.07,28.44,29.37,30Z"/>
  <path class="st0" d="M138.55,113.34c0,7.99,4.7,15.4,11.95,18.63l9.63,4.14c-13.94,2.22-18.64,7.87-21.6,21-.42,1.86.82,2.09-2.37,1.8-.06-7.63-4.22-14.7-10.39-19l-11.19-4.98c9-1.4,15.81-4.74,19.77-13.2,1.43-3.05.7-9.09,4.19-8.4Z"/>
  <path class="st1" d="M281.6,306.75c2.32-1.77,9.38-4.65,12.33-5.06,30.17-4.19,38.86,22.87,63.54,26.17,11.26,1.51,20.05-1.77,29.25-7.71-1.15,15.38-18.11,35.97-32.49,40.65-23.63,7.7-53.48,6.07-73.56-11.3-2.21-1.92-5.06-4.14-5.46-7.15-19.1,20.01-45.17,26.41-72.23,21.3-21.96-4.15-44.57-23.22-44.08-47.06.03-1.36-.71-3.33,1.22-3,2.68,9.27,13.02,15.62,22.32,16.64,30.7,3.39,40.22-37.32,76.3-27.13,5.82,1.64,11.87,8.12,15.67,8.99,4.6,1.05,5.37-3.95,7.19-5.33Z"/>
  <path class="st1" d="M225.66,256.44c14.53,15.51-.38,43.87-21.43,34.27-.53-.24-8.61-7-8.97-7.46-5.62-7-2.53-27.44,6.27-30.8,8.27-3.16,17.82-2.76,24.13,3.98Z"/>
  <path class="st1" d="M331.28,251.52c2.29-.37,4.52-.57,6.83-.23.72.1,9.86,2.78,10.32,3.05,12.07,7.34,7.97,34.37-8.12,37.37-28.66,5.33-32.02-36.43-9.03-40.19Z"/>
  <path class="st1" d="M296.51,367.82c11.05-3,16.18,8.27,2.7,14.69-14.49,6.9-37.01,7.83-51.2-.35-8.22-4.74-6.84-14.95,2.54-13.4,10.32,1.7,13.95,7.08,27.72,6,9.42-.74,12.18-5.3,18.23-6.94Z"/>
  <path class="st2" d="M342.38,383.13l-16.67,9.09-8.49,10.08c-.93-13.75,13.42-20.05,25.16-19.17Z"/>
</svg>