<?xml version="1.0" encoding="UTF-8"?>
<svg id="Icon_Design_xA0_Image" xmlns="http://www.w3.org/2000/svg" version="1.1" viewBox="0 0 550 550">
  <!-- Generator: Adobe Illustrator 29.8.4, SVG Export Plug-In . SVG Version: 2.1.1 Build 6)  -->
  <defs>
    <style>
      .st0 {
        fill: #161b26;
      }

      .st1 {
        fill: #fdc600;
      }

      .st2 {
        fill: #1d1d2a;
      }

      .st3 {
        fill: #fefefe;
      }
    </style>
  </defs>
  <path class="st1" d="M451.43,344.74c12.85,14.43,21.9,35.54,15.39,54.82-3.4,10.07-18.02,27.16-27.45,32.34-13.73,7.55-37.95,10.52-53.63,11.88-113.24,9.81-230.25,6.75-343.87,15.55-15.33-.74-16.12-11.79-8.6-22.87,24.23-35.73,47.63-75.04,68.41-113.19,26.08-47.88,32.89-94.89,78.36-131.68,55.49-44.89,141.82-36.34,191.23,12.73,20.51,20.37,56.88,76.82,54.27,105.88-1.74,19.36-21.88,49.63-37.27,61.22-2.97,2.24-23.26,12.98-25.9,13.14-1.19.07-9.37-6.38-13.25-7.63-32.04-10.28-59.23,26.7-31.51,43.29,9.59,5.74,16.25,6.28,26.67,2.93,4.26-1.37,8.72-4.71,12.01-5.68,4.12-1.22,11.23-1.11,15.76-2.24,37.6-9.41,64.76-34.81,79.36-70.47h0ZM219.12,259.65c-6.62-6.45-16.17-6.42-24.29-2.89-8.64,3.75-10.8,24.3-4.87,31.05.39.43,8.76,6.82,9.3,7.05,21.46,8.63,35.08-20.37,19.86-35.2h0ZM277.28,307.38c-1.75,1.46-2.3,6.5-6.94,5.65-3.84-.7-10.17-6.89-16.06-8.27-36.5-8.55-44.17,32.55-75,30.55-9.34-.61-19.95-6.47-23.05-15.61-1.94-.23-1.11,1.7-1.08,3.05.59,23.84,24.04,41.87,46.16,45.02,27.26,3.88,53.02-3.69,71.19-24.54.54,3,3.47,5.09,5.78,6.9,20.84,16.45,50.73,16.72,74,7.96,14.15-5.34,30.17-26.66,30.62-42.08-8.91,6.34-17.56,10.01-28.87,9.02-24.8-2.18-34.71-28.83-64.66-23.27-2.93.54-9.85,3.74-12.09,5.61h0ZM294.93,367.71c-5.97,1.91-8.52,6.59-17.9,7.76-13.71,1.7-17.58-3.51-27.96-4.74-9.44-1.12-10.36,9.14-1.93,13.5,14.55,7.53,37,5.58,51.16-1.96,13.17-7.02,7.53-18.05-3.36-14.55h0Z"/>
  <path class="st2" d="M451.43,344.74c4.91-11.99,7.4-25.25,10.89-37.69,5.04,3.53,7.22,10.8,10.43,15.03,19.68,25.87,48.28,56.27,64.73,83.71,4.13,6.89,9.31,17.08,8.95,25.13-.65,14.67-12.52,24.5-26.17,27.79l-484.58,22.5c-25.08-1.02-37.25-21.05-27.97-44,3.12-7.69,8.79-12.57,12.2-18.21,5.49-9.09,9.98-18.78,15.39-27.77,15.36-25.53,31.83-50.01,46.14-76.17-11.06-14.16-14.61-29.44-10.02-47,4.85-18.61,26.85-45.59,45.34-24.59.4-3.8,2.71-8.04,4.53-11.38,64.03-117.34,209.88-122.03,287.65-14.95,2.22,3.06,4.88,6.81,5.99,10.43,3.3.8,2.13-2.25,3.93-3.8,7.21-6.19,16.54-4.56,24.1.12,6.27,3.89,16.31,17.68,18.84,24.63,4.9,13.47,5.21,31.34-3.34,43.53-1.82,2.58-11.47,10.45-12.21,12.91-2.18,7.23-2.48,16.55-5.4,24.97-8.64,25-31.5,54.98-55.92,66.04-5.1,2.31-15.12,4.02-18.54,6.03-1.83,1.08-6.5,13.21-10.11,15.45-3.3.97-7.74,4.3-12.01,5.68-10.43,3.35-17.08,2.8-26.67-2.93-27.73-16.58-.53-53.57,31.51-43.29,3.88,1.25,12.07,7.7,13.25,7.63,2.65-.15,22.93-10.91,25.9-13.14,15.38-11.58,35.53-41.85,37.27-61.22,2.61-29.05-33.77-85.5-54.27-105.88-49.4-49.08-135.74-57.62-191.23-12.73-45.46,36.78-52.28,83.79-78.36,131.68-20.79,38.16-44.19,77.46-68.41,113.19-7.52,11.08-6.73,22.14,8.6,22.87,113.62-8.79,230.63-5.74,343.87-15.55,15.67-1.36,39.9-4.33,53.63-11.88,9.43-5.18,24.05-22.27,27.45-32.34,6.5-19.29-2.55-40.4-15.39-54.82h0ZM341.45,380.93c-11.77-.35-25.83,6.59-24.27,20.29l8.03-10.45,16.24-9.83h0Z"/>
  <path class="st2" d="M205.56,136.22l-39.88,20.41c16.57-25.2,31.39-51.45,48.34-76.46,12.43-18.33,22.43-38.8,49.05-36.47,22.49,1.97,44.32,38.48,57.67,55.67,8.39,10.79,17.94,21.65,26.05,32.44,2.28,3.02,9.23,11.3,10.38,13.77.32.7.31,2.02-.5,1.79-12.37-6.6-27.44-13.81-41-17.34-5.48-10.7-15.46-19.25-22.85-28.42-10.56-13.11-27.74-48.01-47.46-26.03l-39.84,60.63h.01Z"/>
  <path class="st1" d="M205.56,136.22l39.84-60.63c19.72-21.97,36.89,12.93,47.46,26.03,7.39,9.17,17.37,17.72,22.85,28.42-35.01-9.1-76.43-6.85-110.14,6.18h0Z"/>
  <path class="st1" d="M453.55,99.81l-19.28,8.21c-19.46,10.76-22.09,26.66-26.84,46.69-4.03-28.15-22.21-47.34-50.88-49.92,28.06-6.74,44.45-25.2,46.16-54.31,5.77,27.88,21.24,46.76,50.83,49.33h0Z"/>
  <path class="st1" d="M494.97,139.94l-12.17,5.52c-5.66,2.43-9.99,7.17-12.42,12.77-2,4.63-1.69,10.93-5.13,14.25-1.04-18.13-13.59-26.31-30.15-29.24,17.6-3.93,26.23-14.48,29.18-31.94,2.84,15.57,14.34,27.82,30.7,28.64Z"/>
  <path class="st1" d="M125.63,120.63c.36,7.98,5.39,15.17,12.78,18.07l9.81,3.7c-13.83,2.85-18.27,8.7-20.63,21.95-.34,1.88.91,2.05-2.29,1.91-.4-7.62-4.88-14.49-11.24-18.51l-11.4-4.47c8.93-1.81,15.58-5.45,19.15-14.08,1.29-3.11.29-9.11,3.81-8.58h.01Z"/>
  <path class="st2" d="M277.28,307.38c2.24-1.87,9.16-5.07,12.09-5.61,29.95-5.55,39.85,21.09,64.66,23.27,11.32,1,19.95-2.67,28.87-9.02-.45,15.42-16.47,36.75-30.62,42.08-23.26,8.76-53.15,8.48-74-7.96-2.29-1.82-5.24-3.91-5.78-6.9-18.18,20.85-43.93,28.42-71.19,24.54-22.13-3.15-45.57-21.18-46.16-45.02-.03-1.36-.86-3.29,1.08-3.05,3.1,9.14,13.71,15.02,23.05,15.61,30.82,2,38.49-39.1,75-30.55,5.89,1.38,12.22,7.58,16.06,8.27,4.64.84,5.19-4.19,6.94-5.65h0Z"/>
  <path class="st2" d="M219.12,259.65c15.22,14.84,1.6,43.84-19.86,35.2-.54-.22-8.92-6.6-9.3-7.05-5.93-6.74-3.77-27.3,4.87-31.05,8.12-3.53,17.68-3.56,24.29,2.89h0Z"/>
  <path class="st2" d="M294.93,367.71c10.9-3.5,16.54,7.53,3.36,14.55-14.16,7.55-36.62,9.49-51.16,1.96-8.43-4.36-7.51-14.63,1.93-13.5,10.39,1.23,14.26,6.44,27.96,4.74,9.38-1.16,11.93-5.85,17.9-7.76h0Z"/>
  <path class="st3" d="M341.45,380.93l-16.24,9.83-8.03,10.45c-1.55-13.69,12.5-20.64,24.27-20.29h0Z"/>
  <path class="st0" d="M312.76,255.91c11.22-2.15,25.41,1.36,28.69,8.75,4.48,10.1-5.82,5.23-14.4,4.73-10.01-.59-15.82.21-24.55,4.2-3.17,1.45-13.44,9.2-14.16,3.43-.92-7.42,13.54-19.03,24.42-21.12Z"/>
</svg>